<svg width="525.2" height="100.001" viewBox="0 0 525.2 100.001" xmlns="http://www.w3.org/2000/svg"><g id="svgGroup" stroke-linecap="round" fill-rule="nonzero" font-size="9pt" stroke="#00000000" stroke-width="0.25mm" fill="#d4af37" style="stroke:#00000000;stroke-width:0.25mm;fill:#d4af37"><path d="M 59.5 57.1 L 66.3 25 L 80.7 25 L 73.5 59 Q 73.1 60.5 73.1 62.2 Q 73.1 63.36 73.42 64.133 A 2.476 2.476 0 0 0 74.05 65.05 A 2.759 2.759 0 0 0 74.916 65.56 Q 75.719 65.866 76.928 65.897 A 10.79 10.79 0 0 0 77.2 65.9 A 6.923 6.923 0 0 0 80.999 64.742 A 10.064 10.064 0 0 0 82.6 63.45 A 13.046 13.046 0 0 0 85.376 59.396 A 16.871 16.871 0 0 0 86.179 57.175 L 93 25 L 107.4 25 L 106.3 30.2 A 18.22 18.22 0 0 1 110.466 26.679 A 14.331 14.331 0 0 1 118 24.6 A 15.036 15.036 0 0 1 121.395 24.962 Q 124.113 25.591 126.01 27.317 A 9.662 9.662 0 0 1 126.1 27.4 A 8.761 8.761 0 0 1 128.43 31.16 Q 129.1 33.206 129.1 35.9 Q 129.1 38.709 128.443 42.129 A 46.208 46.208 0 0 1 128.4 42.35 Q 127.7 45.9 126.4 51 A 175.423 175.423 0 0 0 125.032 56.681 A 160.665 160.665 0 0 0 124.95 57.05 A 40.513 40.513 0 0 0 124.621 58.691 Q 124.345 60.249 124.307 61.35 A 9.904 9.904 0 0 0 124.3 61.7 A 7.151 7.151 0 0 0 124.395 62.902 Q 124.592 64.057 125.2 64.8 A 2.646 2.646 0 0 0 126.283 65.571 Q 126.734 65.754 127.306 65.835 A 7.079 7.079 0 0 0 128.3 65.9 A 6.758 6.758 0 0 0 130.579 65.531 A 5.773 5.773 0 0 0 133.1 63.75 Q 134.204 62.431 135.308 60.229 A 38.198 38.198 0 0 0 135.403 60.037 A 29.775 29.775 0 0 1 135.4 59.5 A 41.743 41.743 0 0 1 136.538 50.018 A 53.508 53.508 0 0 1 138.35 43.95 A 36.675 36.675 0 0 1 144.406 33.131 A 34.348 34.348 0 0 1 147.15 30.15 Q 153 24.5 161.1 24.5 A 19.255 19.255 0 0 1 163.24 24.611 Q 165.529 24.868 166.925 25.72 A 5.271 5.271 0 0 1 167.2 25.9 A 5.04 5.04 0 0 1 168.419 27.077 A 4.208 4.208 0 0 1 169.2 29.6 L 169.2 30.2 L 170.3 25 L 184.7 25 L 174.8 71.4 A 20.444 20.444 0 0 0 178.883 69.548 A 15.893 15.893 0 0 0 182.5 66.6 A 17.118 17.118 0 0 0 184.282 64.211 A 12.73 12.73 0 0 1 184.2 62.8 A 11.838 11.838 0 0 1 184.582 59.735 A 9.646 9.646 0 0 1 185.75 57.05 A 11.095 11.095 0 0 1 187.317 55.078 A 8.517 8.517 0 0 1 189.5 53.5 Q 193.4 46.5 196.3 39.35 A 187.992 187.992 0 0 0 199.808 29.963 A 224.875 224.875 0 0 0 201.8 23.9 L 216.6 21.9 Q 217.1 34.7 218.3 49.6 A 260.452 260.452 0 0 1 218.519 52.394 Q 218.8 56.275 218.8 58.3 A 21.814 21.814 0 0 1 218.748 59.85 Q 218.697 60.575 218.593 61.196 A 9.734 9.734 0 0 1 218.4 62.1 A 64.999 64.999 0 0 0 221.123 60.452 Q 223.881 58.681 225.6 57.1 L 231.6 29 L 228.3 29 L 229.1 25 L 232.4 25 L 235.4 11.2 L 250.2 9.2 L 246.8 25 L 252.8 25 L 252 29 L 246 29 L 239.6 59 Q 239.2 60.5 239.2 62.2 Q 239.2 63.36 239.52 64.133 A 2.476 2.476 0 0 0 240.15 65.05 A 2.759 2.759 0 0 0 241.016 65.56 Q 241.819 65.866 243.028 65.897 A 10.79 10.79 0 0 0 243.3 65.9 A 6.923 6.923 0 0 0 247.099 64.742 A 10.064 10.064 0 0 0 248.7 63.45 A 13.046 13.046 0 0 0 251.009 60.358 A 29.775 29.775 0 0 1 251 59.5 A 41.743 41.743 0 0 1 252.138 50.018 A 53.508 53.508 0 0 1 253.95 43.95 A 36.675 36.675 0 0 1 260.006 33.131 A 34.348 34.348 0 0 1 262.75 30.15 Q 268.6 24.5 276.7 24.5 A 19.255 19.255 0 0 1 278.84 24.611 Q 281.129 24.868 282.525 25.72 A 5.271 5.271 0 0 1 282.8 25.9 A 5.04 5.04 0 0 1 284.019 27.077 A 4.208 4.208 0 0 1 284.8 29.6 L 284.8 30.3 L 285.9 25 L 300.3 25 L 293.1 59 Q 292.7 60.5 292.7 62.2 A 6.512 6.512 0 0 0 292.896 63.875 Q 293.469 66.019 295.71 66.412 A 6.322 6.322 0 0 0 296.8 66.5 A 5.619 5.619 0 0 0 300.646 64.978 A 8.486 8.486 0 0 0 301.65 63.9 A 15.698 15.698 0 0 0 303.385 61.111 A 22.744 22.744 0 0 0 303.617 60.621 A 29.775 29.775 0 0 1 303.6 59.5 A 41.743 41.743 0 0 1 304.738 50.018 A 53.508 53.508 0 0 1 306.55 43.95 A 36.675 36.675 0 0 1 312.606 33.131 A 34.348 34.348 0 0 1 315.35 30.15 Q 321.2 24.5 329.3 24.5 A 19.255 19.255 0 0 1 331.44 24.611 Q 333.729 24.868 335.125 25.72 A 5.271 5.271 0 0 1 335.4 25.9 A 5.04 5.04 0 0 1 336.619 27.077 A 4.208 4.208 0 0 1 337.4 29.6 L 337.4 30.2 L 338.5 25 L 352.9 25 L 343 71.4 A 20.444 20.444 0 0 0 347.083 69.548 A 15.893 15.893 0 0 0 350.7 66.6 A 17.118 17.118 0 0 0 352.749 63.764 Q 353.637 62.252 354.417 60.367 A 40.953 40.953 0 0 0 355.584 57.15 L 362.4 25 L 376.8 25 L 375.5 31.2 Q 378.099 28.907 380.318 27.432 A 26.329 26.329 0 0 1 381.65 26.6 Q 384.4 25 387.6 25 A 7.49 7.49 0 0 1 389.852 25.322 A 5.901 5.901 0 0 1 392.65 27.2 A 7.857 7.857 0 0 1 394.488 32.009 A 10.041 10.041 0 0 1 394.5 32.5 Q 394.5 35.4 392.6 37.6 A 6.203 6.203 0 0 1 388.811 39.679 A 9.059 9.059 0 0 1 387.3 39.8 Q 385.381 39.8 384.565 39.001 A 1.882 1.882 0 0 1 384.35 38.75 A 5.094 5.094 0 0 1 383.856 37.873 Q 383.656 37.427 383.492 36.884 A 12.76 12.76 0 0 1 383.2 35.7 Q 382.957 34.648 382.714 34.054 A 3.716 3.716 0 0 0 382.6 33.8 A 1.026 1.026 0 0 0 381.86 33.235 A 1.71 1.71 0 0 0 381.5 33.2 Q 379.517 33.2 378.114 33.958 A 5.358 5.358 0 0 0 377.95 34.05 A 12.277 12.277 0 0 0 377.014 34.665 Q 375.817 35.523 374.2 37 L 366.2 75 L 351.8 75 L 352.91 69.763 A 18.967 18.967 0 0 1 352.5 70.15 Q 347.9 74.3 342.1 75.8 L 340.6 83 A 38.332 38.332 0 0 1 339.246 87.978 Q 337.222 93.727 333.7 96.35 Q 328.8 100 322.6 100 A 15.192 15.192 0 0 1 318.867 99.563 A 11.373 11.373 0 0 1 314.6 97.5 A 8.113 8.113 0 0 1 311.532 92.119 A 12.035 12.035 0 0 1 311.4 90.3 A 11.353 11.353 0 0 1 312.445 85.378 Q 313.521 83.107 315.704 81.378 A 14.219 14.219 0 0 1 316 81.15 Q 320.142 78.044 326.31 75.87 A 57.374 57.374 0 0 1 327.7 75.4 L 328.9 70.1 A 18.104 18.104 0 0 1 324.277 73.762 A 15.218 15.218 0 0 1 316.9 75.6 A 13.692 13.692 0 0 1 311.824 74.685 A 12.609 12.609 0 0 1 307.4 71.7 A 11.845 11.845 0 0 1 304.802 67.445 A 19.097 19.097 0 0 1 304.574 66.763 A 32.736 32.736 0 0 1 304.283 67.198 Q 302.276 70.107 299.95 71.75 Q 294.5 75.6 289 75.6 Q 284.8 75.6 282.25 73.25 Q 279.91 71.093 279.296 67.125 A 17.113 17.113 0 0 1 279.2 66.4 A 30.712 30.712 0 0 1 275.732 70.522 A 24.943 24.943 0 0 1 272.75 73.05 A 13.547 13.547 0 0 1 266.235 75.495 A 17.382 17.382 0 0 1 264.3 75.6 A 13.692 13.692 0 0 1 259.224 74.685 A 12.609 12.609 0 0 1 254.8 71.7 A 11.845 11.845 0 0 1 252.202 67.445 A 19.097 19.097 0 0 1 251.941 66.658 A 30.531 30.531 0 0 1 251.402 67.426 Q 249.378 70.172 247 71.75 A 25.497 25.497 0 0 1 242.214 74.278 A 18.299 18.299 0 0 1 235.5 75.6 A 12.469 12.469 0 0 1 231.969 75.124 A 9.634 9.634 0 0 1 227.75 72.6 A 9.385 9.385 0 0 1 225.584 68.99 Q 225.082 67.519 224.901 65.721 A 21.244 21.244 0 0 1 224.8 63.6 A 20.478 20.478 0 0 1 224.859 62.132 A 58.449 58.449 0 0 1 214.5 69.6 A 17.165 17.165 0 0 1 207.614 74.058 A 20.036 20.036 0 0 1 207.35 74.15 Q 203.1 75.6 198.8 75.6 Q 194 75.6 190.7 73.75 A 13.496 13.496 0 0 1 187.768 71.569 A 11.2 11.2 0 0 1 185.8 68.95 A 12.73 12.73 0 0 1 185.687 68.741 A 18.967 18.967 0 0 1 184.3 70.15 Q 179.7 74.3 173.9 75.8 L 172.4 83 A 38.332 38.332 0 0 1 171.046 87.978 Q 169.022 93.727 165.5 96.35 Q 160.6 100 154.4 100 A 15.192 15.192 0 0 1 150.667 99.563 A 11.373 11.373 0 0 1 146.4 97.5 A 8.113 8.113 0 0 1 143.332 92.119 A 12.035 12.035 0 0 1 143.2 90.3 A 11.353 11.353 0 0 1 144.245 85.378 Q 145.321 83.107 147.504 81.378 A 14.219 14.219 0 0 1 147.8 81.15 Q 151.942 78.044 158.11 75.87 A 57.374 57.374 0 0 1 159.5 75.4 L 160.7 70.1 A 18.104 18.104 0 0 1 156.077 73.762 A 15.218 15.218 0 0 1 148.7 75.6 A 13.692 13.692 0 0 1 143.624 74.685 A 12.609 12.609 0 0 1 139.2 71.7 A 11.845 11.845 0 0 1 136.602 67.445 A 19.097 19.097 0 0 1 136.463 67.041 A 21.296 21.296 0 0 1 133.869 70.469 A 13.496 13.496 0 0 1 132.35 71.85 A 19.501 19.501 0 0 1 128.196 74.347 A 14.682 14.682 0 0 1 122.3 75.6 A 18.094 18.094 0 0 1 118.965 75.314 Q 115.354 74.635 113.35 72.35 Q 110.5 69.1 110.5 64.3 A 21.173 21.173 0 0 1 110.61 62.21 Q 110.734 60.958 111 59.55 Q 111.5 56.9 112.05 54.4 Q 112.583 51.976 112.788 51.244 A 7.505 7.505 0 0 1 112.8 51.2 Q 113.6 47.7 114.3 44.3 A 46.699 46.699 0 0 0 114.669 42.302 Q 115 40.244 115 38.8 A 10.701 10.701 0 0 0 114.863 37.002 Q 114.313 33.793 111.562 33.703 A 4.913 4.913 0 0 0 111.4 33.7 Q 108.8 33.7 106.8 36.25 A 15.743 15.743 0 0 0 105.101 38.981 Q 104.426 40.341 103.89 41.968 A 28.812 28.812 0 0 0 103.6 42.9 L 96.8 75 L 82.4 75 L 83.566 69.501 A 18.204 18.204 0 0 1 81.379 71.417 A 14.216 14.216 0 0 1 80.9 71.75 A 25.497 25.497 0 0 1 76.114 74.278 A 18.299 18.299 0 0 1 69.4 75.6 A 12.469 12.469 0 0 1 65.869 75.124 A 9.634 9.634 0 0 1 61.65 72.6 A 9.385 9.385 0 0 1 59.484 68.99 Q 58.982 67.519 58.801 65.721 A 21.244 21.244 0 0 1 58.7 63.6 Q 58.7 61.214 59.429 57.462 A 66.029 66.029 0 0 1 59.5 57.1 Z M 331.4 58.1 L 336.5 34.4 A 3.216 3.216 0 0 0 336.226 33.13 Q 336.039 32.692 335.724 32.247 A 6.351 6.351 0 0 0 335.5 31.95 A 3.156 3.156 0 0 0 333.873 30.891 Q 333.343 30.736 332.702 30.707 A 6.663 6.663 0 0 0 332.4 30.7 Q 328.966 30.7 326.121 34.128 A 17.036 17.036 0 0 0 325.2 35.35 A 32.611 32.611 0 0 0 322.043 41.182 A 43.367 43.367 0 0 0 320.2 46.55 Q 318.769 51.757 318.476 55.984 A 30.572 30.572 0 0 0 318.4 58.1 Q 318.4 62.834 319.7 64.341 A 2.401 2.401 0 0 0 319.85 64.5 Q 321.3 65.9 323.4 65.9 Q 325.341 65.9 327.353 64.405 A 12.069 12.069 0 0 0 328.1 63.8 Q 330.5 61.7 331.4 58.1 Z M 163.2 58.1 L 168.3 34.4 A 3.216 3.216 0 0 0 168.026 33.13 Q 167.839 32.692 167.524 32.247 A 6.351 6.351 0 0 0 167.3 31.95 A 3.156 3.156 0 0 0 165.673 30.891 Q 165.143 30.736 164.502 30.707 A 6.663 6.663 0 0 0 164.2 30.7 Q 160.766 30.7 157.921 34.128 A 17.036 17.036 0 0 0 157 35.35 A 32.611 32.611 0 0 0 153.843 41.182 A 43.367 43.367 0 0 0 152 46.55 Q 150.569 51.757 150.276 55.984 A 30.572 30.572 0 0 0 150.2 58.1 Q 150.2 62.834 151.5 64.341 A 2.401 2.401 0 0 0 151.65 64.5 Q 153.1 65.9 155.2 65.9 Q 157.141 65.9 159.153 64.405 A 12.069 12.069 0 0 0 159.9 63.8 Q 162.3 61.7 163.2 58.1 Z M 279.1 57.1 L 283.9 34.5 A 3.6 3.6 0 0 0 283.509 32.895 A 5.189 5.189 0 0 0 282.9 31.95 A 3.156 3.156 0 0 0 281.273 30.891 Q 280.743 30.736 280.102 30.707 A 6.663 6.663 0 0 0 279.8 30.7 Q 276.366 30.7 273.521 34.128 A 17.036 17.036 0 0 0 272.6 35.35 A 32.611 32.611 0 0 0 269.443 41.182 A 43.367 43.367 0 0 0 267.6 46.55 Q 266.169 51.757 265.876 55.984 A 30.572 30.572 0 0 0 265.8 58.1 Q 265.8 62.834 267.1 64.341 A 2.401 2.401 0 0 0 267.25 64.5 Q 268.7 65.9 270.8 65.9 A 5.814 5.814 0 0 0 273.442 65.237 Q 274.276 64.816 275.103 64.129 A 12.146 12.146 0 0 0 275.75 63.55 A 10.833 10.833 0 0 0 278.113 60.142 A 15.414 15.414 0 0 0 279.1 57.1 Z M 189.727 62.199 A 28.703 28.703 0 0 1 189.603 62.479 A 14.258 14.258 0 0 0 189.615 62.575 Q 189.908 64.778 190.95 66 A 4.44 4.44 0 0 0 192.902 67.298 Q 194.044 67.7 195.6 67.7 A 10.266 10.266 0 0 0 198.707 67.248 A 8.517 8.517 0 0 0 201.8 65.5 Q 204.3 63.3 204.3 58.4 Q 204.3 55.4 203.7 50 A 4983.323 4983.323 0 0 1 203.296 45.371 Q 202.634 37.747 202.4 34.7 Q 200 42.6 194.3 53.6 A 5.124 5.124 0 0 1 195.488 54.433 A 3.544 3.544 0 0 1 196.6 57.1 Q 196.6 59 195.35 60.5 A 4.23 4.23 0 0 1 194.06 61.564 A 3.958 3.958 0 0 1 192.2 62 A 5.203 5.203 0 0 1 191.257 61.921 Q 190.758 61.829 190.383 61.628 A 1.966 1.966 0 0 1 190.061 61.419 A 44.142 44.142 0 0 1 189.727 62.199 Z M 157.9 83.3 L 158.5 80.4 A 36.376 36.376 0 0 0 154.923 81.916 Q 148.7 84.995 148.7 88.9 Q 148.7 90.2 149.6 91.2 A 2.948 2.948 0 0 0 151.3 92.129 A 4.335 4.335 0 0 0 152.1 92.2 Q 153.755 92.2 155.316 90.02 A 10.961 10.961 0 0 0 155.4 89.9 Q 157 87.6 157.9 83.3 Z M 326.1 83.3 L 326.7 80.4 A 36.376 36.376 0 0 0 323.123 81.916 Q 316.9 84.995 316.9 88.9 Q 316.9 90.2 317.8 91.2 A 2.948 2.948 0 0 0 319.5 92.129 A 4.335 4.335 0 0 0 320.3 92.2 Q 321.955 92.2 323.516 90.02 A 10.961 10.961 0 0 0 323.6 89.9 Q 325.2 87.6 326.1 83.3 Z M 425.7 29.6 L 425.7 30.3 L 426.8 25 L 441.2 25 L 434 59 Q 433.6 60.5 433.6 62.2 A 6.512 6.512 0 0 0 433.796 63.875 Q 434.369 66.019 436.61 66.412 A 6.322 6.322 0 0 0 437.7 66.5 A 5.619 5.619 0 0 0 441.546 64.978 A 8.486 8.486 0 0 0 442.55 63.9 A 15.698 15.698 0 0 0 444.285 61.111 Q 444.971 59.721 445.51 58.055 A 28.82 28.82 0 0 0 445.78 57.17 L 452.6 25 L 467 25 L 465.9 30.2 A 17.961 17.961 0 0 1 470.559 26.405 A 15.292 15.292 0 0 1 478.1 24.5 Q 486.9 24.5 488.4 33.1 A 22.773 22.773 0 0 1 492.096 28.64 A 14.656 14.656 0 0 1 502.3 24.6 A 15.036 15.036 0 0 1 505.695 24.962 Q 508.413 25.591 510.31 27.317 A 9.662 9.662 0 0 1 510.4 27.4 A 8.761 8.761 0 0 1 512.73 31.16 Q 513.4 33.206 513.4 35.9 Q 513.4 38.709 512.743 42.129 A 46.208 46.208 0 0 1 512.7 42.35 Q 512 45.9 510.7 51 A 175.423 175.423 0 0 0 509.332 56.681 A 160.665 160.665 0 0 0 509.25 57.05 A 40.513 40.513 0 0 0 508.921 58.691 Q 508.645 60.249 508.607 61.35 A 9.904 9.904 0 0 0 508.6 61.7 A 7.151 7.151 0 0 0 508.695 62.902 Q 508.892 64.057 509.5 64.8 A 2.646 2.646 0 0 0 510.583 65.571 Q 511.034 65.754 511.606 65.835 A 7.079 7.079 0 0 0 512.6 65.9 A 6.758 6.758 0 0 0 514.879 65.531 A 5.773 5.773 0 0 0 517.4 63.75 Q 519.2 61.6 521 57.1 L 525.2 57.1 A 62.897 62.897 0 0 1 523.153 62.432 Q 520.851 67.648 518.169 70.469 A 13.496 13.496 0 0 1 516.65 71.85 A 19.501 19.501 0 0 1 512.496 74.347 A 14.682 14.682 0 0 1 506.6 75.6 A 18.094 18.094 0 0 1 503.265 75.314 Q 499.654 74.635 497.65 72.35 Q 494.8 69.1 494.8 64.3 A 21.173 21.173 0 0 1 494.91 62.21 Q 495.034 60.958 495.3 59.55 Q 495.8 56.9 496.35 54.4 Q 496.883 51.976 497.088 51.244 A 7.505 7.505 0 0 1 497.1 51.2 Q 497.9 47.7 498.6 44.3 A 46.699 46.699 0 0 0 498.969 42.302 Q 499.3 40.244 499.3 38.8 A 10.701 10.701 0 0 0 499.163 37.002 Q 498.613 33.793 495.862 33.703 A 4.913 4.913 0 0 0 495.7 33.7 Q 493.1 33.7 491.1 36.25 A 15.743 15.743 0 0 0 489.401 38.981 Q 488.726 40.341 488.19 41.968 A 28.812 28.812 0 0 0 487.9 42.9 L 481.1 75 L 466.7 75 L 474 40.5 Q 474.3 39.3 474.3 38 A 9.551 9.551 0 0 0 474.186 36.449 Q 473.732 33.705 471.476 33.604 A 3.914 3.914 0 0 0 471.3 33.6 A 5.699 5.699 0 0 0 467.383 35.156 A 8.476 8.476 0 0 0 466.45 36.15 A 15.053 15.053 0 0 0 464.741 38.851 Q 463.847 40.636 463.2 42.9 L 456.4 75 L 442 75 L 443.108 69.773 A 19.212 19.212 0 0 1 441.782 71.03 A 14.043 14.043 0 0 1 440.85 71.75 Q 435.4 75.6 429.9 75.6 Q 425.7 75.6 423.15 73.25 Q 420.81 71.093 420.196 67.125 A 17.113 17.113 0 0 1 420.1 66.4 A 30.712 30.712 0 0 1 416.632 70.522 A 24.943 24.943 0 0 1 413.65 73.05 A 13.547 13.547 0 0 1 407.135 75.495 A 17.382 17.382 0 0 1 405.2 75.6 A 13.692 13.692 0 0 1 400.124 74.685 A 12.609 12.609 0 0 1 395.7 71.7 Q 392.835 68.76 392.13 63.319 A 29.775 29.775 0 0 1 391.9 59.5 A 41.743 41.743 0 0 1 393.038 50.018 A 53.508 53.508 0 0 1 394.85 43.95 A 36.675 36.675 0 0 1 400.906 33.131 A 34.348 34.348 0 0 1 403.65 30.15 Q 409.5 24.5 417.6 24.5 A 19.255 19.255 0 0 1 419.74 24.611 Q 422.029 24.868 423.425 25.72 A 5.271 5.271 0 0 1 423.7 25.9 A 5.04 5.04 0 0 1 424.919 27.077 A 4.208 4.208 0 0 1 425.7 29.6 Z M 420 57.1 L 424.8 34.5 A 3.6 3.6 0 0 0 424.409 32.895 A 5.189 5.189 0 0 0 423.8 31.95 A 3.156 3.156 0 0 0 422.173 30.891 Q 421.643 30.736 421.002 30.707 A 6.663 6.663 0 0 0 420.7 30.7 Q 417.266 30.7 414.421 34.128 A 17.036 17.036 0 0 0 413.5 35.35 A 32.611 32.611 0 0 0 410.343 41.182 A 43.367 43.367 0 0 0 408.5 46.55 Q 407.069 51.757 406.776 55.984 A 30.572 30.572 0 0 0 406.7 58.1 Q 406.7 62.834 408 64.341 A 2.401 2.401 0 0 0 408.15 64.5 Q 409.6 65.9 411.7 65.9 A 5.814 5.814 0 0 0 414.342 65.237 Q 415.176 64.816 416.003 64.129 A 12.146 12.146 0 0 0 416.65 63.55 A 10.833 10.833 0 0 0 419.013 60.142 A 15.414 15.414 0 0 0 420 57.1 Z M 31.2 37.3 L 23.2 75 L 8.8 75 L 23.3 7 A 23.751 23.751 0 0 0 16.728 11.036 A 21.127 21.127 0 0 0 12.95 15.4 Q 9.3 21 9.3 28.9 Q 9.3 32.6 10 34.05 A 50.196 50.196 0 0 1 10.164 34.393 Q 10.593 35.299 10.679 35.592 A 0.434 0.434 0 0 1 10.7 35.7 A 20.861 20.861 0 0 1 7.88 35.522 Q 6.425 35.323 5.242 34.902 A 8.223 8.223 0 0 1 2.65 33.45 A 6.745 6.745 0 0 1 0.726 30.635 Q 0.296 29.501 0.121 28.083 A 17.01 17.01 0 0 1 0 26 A 16.53 16.53 0 0 1 1.95 18.33 Q 3.199 15.913 5.25 13.55 Q 10.5 7.5 18.7 3.75 A 41.466 41.466 0 0 1 28.95 0.527 A 36.323 36.323 0 0 1 35.1 0 Q 36.5 0 39.1 0.2 L 32.6 30.8 L 42.9 17 A 5027.846 5027.846 0 0 1 45.768 13.133 Q 55.148 0.499 55.298 0.499 A 0.002 0.002 0 0 1 55.3 0.5 L 65.8 0.5 L 38 32.5 L 41.5 32.4 Q 47.634 32.4 50.514 34.719 A 6.81 6.81 0 0 1 51.1 35.25 Q 53.868 38.068 53.9 42.987 A 17.73 17.73 0 0 1 53.9 43.1 A 27.086 27.086 0 0 1 53.627 46.862 A 33.352 33.352 0 0 1 53.2 49.25 Q 52.5 52.5 51.2 57.3 Q 50.4 60.4 49.7 63.4 A 34.341 34.341 0 0 0 49.302 65.344 Q 49 67.088 49 68.4 A 8.613 8.613 0 0 0 49.332 70.829 A 7.46 7.46 0 0 0 50.05 72.5 A 6.041 6.041 0 0 0 51.366 74.093 A 5.388 5.388 0 0 0 52.9 75 A 64.075 64.075 0 0 1 49.312 75.896 Q 45.797 76.66 43.263 76.698 A 17.522 17.522 0 0 1 43 76.7 Q 36.217 76.7 35.333 71.632 A 9.505 9.505 0 0 1 35.2 70 A 18.066 18.066 0 0 1 35.325 67.951 Q 35.444 66.902 35.68 65.739 A 33.015 33.015 0 0 1 35.85 64.95 Q 36.5 62.1 37.7 57.6 Q 38.663 54.369 39.294 51.799 A 70.71 70.71 0 0 0 39.8 49.6 A 35.794 35.794 0 0 0 40.279 46.846 Q 40.5 45.163 40.5 43.7 A 11.218 11.218 0 0 0 40.233 41.134 Q 39.412 37.651 36.062 37.033 A 8.619 8.619 0 0 0 34.5 36.9 Q 32.8 36.9 31.2 37.3 Z M 72.592 18.768 A 7.931 7.931 0 0 1 70.6 17.3 A 7.609 7.609 0 0 1 68.301 11.803 A 9.402 9.402 0 0 1 68.3 11.7 A 7.787 7.787 0 0 1 70.591 6.059 A 9.359 9.359 0 0 1 70.6 6.05 A 7.525 7.525 0 0 1 76.046 3.701 A 9.171 9.171 0 0 1 76.2 3.7 A 7.693 7.693 0 0 1 81.776 5.977 A 9.397 9.397 0 0 1 81.85 6.05 A 7.695 7.695 0 0 1 84.2 11.597 A 9.208 9.208 0 0 1 84.2 11.7 A 7.527 7.527 0 0 1 81.959 17.192 A 9.076 9.076 0 0 1 81.85 17.3 A 7.787 7.787 0 0 1 76.213 19.6 A 9.433 9.433 0 0 1 76.2 19.6 A 7.792 7.792 0 0 1 72.592 18.768 Z" vector-effect="non-scaling-stroke"/></g></svg>